<svg width="24" height="24" viewBox="0 0 24 24" fill="none" xmlns="http://www.w3.org/2000/svg">
<path d="M19.914 6.757L17.9235 8.757V4H8.96656V9H3.99046V20H17.9235V17.243L19.914 15.243V21.008C19.9137 21.2712 19.8095 21.5235 19.6242 21.7095C19.4389 21.8955 19.1877 22 18.9257 22H2.98828C2.85758 21.9991 2.72835 21.9723 2.60795 21.9212C2.48755 21.8701 2.37835 21.7957 2.28658 21.7022C2.19482 21.6087 2.12228 21.4979 2.07311 21.3762C2.02394 21.2545 1.99911 21.1243 2.00002 20.993V8L7.97433 2H18.9168C19.4661 2 19.914 2.455 19.914 2.992V6.757ZM20.5928 8.8975L22 10.3125L14.3547 18L12.9454 17.998L12.9474 16.586L20.5928 8.8975Z" fill="#546E7A"/>
</svg>
