<svg width="82" height="28" viewBox="0 0 82 28" fill="none" xmlns="http://www.w3.org/2000/svg">
<mask id="mask0_594_574" style="mask-type:alpha" maskUnits="userSpaceOnUse" x="0" y="0" width="82" height="28">
<path fill-rule="evenodd" clip-rule="evenodd" d="M0 0.608887H81.25V27.5985H0L0 0.608887Z" fill="white"/>
</mask>
<g mask="url(#mask0_594_574)">
<path fill-rule="evenodd" clip-rule="evenodd" d="M68.2518 0.608887H12.9983C5.8193 0.608887 0 6.68592 0 14.1824C0 21.6789 5.66819 27.5989 12.8471 27.5989H68.1007C75.2793 27.5989 81.2501 21.6789 81.2501 14.1824C81.2501 6.68592 75.4308 0.608887 68.2518 0.608887Z" fill="white"/>
<path fill-rule="evenodd" clip-rule="evenodd" d="M67.7422 24.2632C62.4006 24.2632 58.0552 19.7253 58.0552 14.1471C58.0552 8.5689 62.4006 4.03101 67.7422 4.03101C73.0835 4.03101 77.4293 8.5689 77.4293 14.1471C77.4293 19.7253 73.0835 24.2632 67.7422 24.2632Z" fill="#7C47E1"/>
<path fill-rule="evenodd" clip-rule="evenodd" d="M67.7435 21.0459C64.0944 21.0459 61.1365 17.9566 61.1365 14.1463C61.1365 10.3355 64.0944 7.24658 67.7435 7.24658C71.3923 7.24658 74.3506 10.3355 74.3506 14.1463C74.3506 17.9566 71.3923 21.0459 67.7435 21.0459Z" fill="#44CB86"/>
<path fill-rule="evenodd" clip-rule="evenodd" d="M13.4955 21.0058C9.87303 21.0058 6.92649 17.9284 6.92649 14.1459C6.92649 10.3631 9.87303 7.2856 13.4955 7.2856C17.1175 7.2856 20.0645 10.3631 20.0645 14.1459C20.0645 17.9284 17.1175 21.0058 13.4955 21.0058ZM23.1709 14.1456C23.1709 8.5731 18.8298 4.03931 13.4937 4.03931C8.15753 4.03931 3.81641 8.5731 3.81641 14.1456C3.81641 19.7176 8.15753 24.2514 13.4937 24.2514C16.0273 24.2514 18.3356 23.2291 20.0627 21.5592V22.6286C20.0627 23.5247 20.7586 24.2514 21.617 24.2514C22.475 24.2514 23.1709 23.5247 23.1709 22.6286V14.4698C23.1709 14.4378 23.1697 14.4075 23.1682 14.3788C23.1697 14.3013 23.1709 14.2234 23.1709 14.1456Z" fill="#7C47E1"/>
<path fill-rule="evenodd" clip-rule="evenodd" d="M34.944 24.2623C29.571 24.2623 25.1992 19.697 25.1992 14.086C25.1992 8.4742 29.571 3.90967 34.944 3.90967C37.3536 3.90967 39.667 4.8352 41.4573 6.51616C42.0994 7.11911 42.152 8.15121 41.575 8.82179C40.9976 9.49278 40.0089 9.54729 39.3672 8.94435C38.1512 7.80321 36.5804 7.17485 34.944 7.17485C31.2949 7.17485 28.3259 10.2748 28.3259 14.086C28.3259 17.8968 31.2949 20.9972 34.944 20.9972C36.5815 20.9972 38.1531 20.368 39.3691 19.2252C40.0109 18.6218 40.9996 18.6764 41.577 19.3465C42.1547 20.0167 42.1025 21.0488 41.4612 21.6522C39.6698 23.3352 37.3556 24.2623 34.944 24.2623Z" fill="#7C47E1"/>
<path fill-rule="evenodd" clip-rule="evenodd" d="M58.1902 21.2998L49.8039 13.9525L58.1902 6.75729C58.8512 6.18549 58.9427 5.16241 58.3947 4.47215C57.8468 3.78231 56.8667 3.68681 56.2061 4.25901L47.12 12.1273V5.50836C47.12 4.61193 46.4241 3.8856 45.5657 3.8856C44.7076 3.8856 44.0117 4.61193 44.0117 5.50836V22.5487C44.0117 23.4451 44.7076 24.1719 45.5657 24.1719C46.4241 24.1719 47.12 23.4451 47.12 22.5487V15.9298L56.2061 23.7981C56.4966 24.0493 56.8479 24.1719 57.1976 24.1719C57.6439 24.1719 58.0874 23.9718 58.3947 23.5849C58.9427 22.8951 58.8512 21.872 58.1902 21.2998Z" fill="#7C47E1"/>
</g>
</svg>
