<svg width="24" height="24" viewBox="0 0 24 24" fill="none" xmlns="http://www.w3.org/2000/svg">
<path fill-rule="evenodd" clip-rule="evenodd" d="M17.437 11.5994V3H8.47999V8H3.50389V19H8.07471C8.07471 19 8.14244 19.4052 8.56117 19.7254C8.97991 20.0457 10.2361 21 10.2361 21H2.50171C2.37101 20.9991 2.24177 20.9723 2.12138 20.9212C2.00098 20.8701 1.89178 20.7957 1.80001 20.7022C1.70824 20.6087 1.6357 20.4979 1.58654 20.3762C1.53737 20.2545 1.51253 20.1243 1.51345 19.993V7L7.48776 1H18.4302C18.9796 1 19.4274 1.455 19.4274 1.992V11.8055C19.4274 11.8055 18.9289 11.6387 18.5658 11.6092C18.2026 11.5798 17.437 11.5994 17.437 11.5994ZM10.5545 19.7368L16.4806 23L22.4867 20.0789L21.5257 15.8421C21.1253 14.0526 19.3635 12.8684 17.5216 13.1579L15.8666 13.3947L14.3184 10.2894C13.7311 9.15786 12.3163 8.68417 11.1685 9.2368C9.99392 9.78944 9.51342 11.2105 10.1007 12.3421L11.9159 15.9473H11.8625C10.8481 15.8158 9.91383 16.3947 9.59351 17.3421C9.29987 18.2631 9.70028 19.2631 10.5545 19.7368ZM11.7557 11.5263C11.6489 11.2894 11.729 11 11.996 10.8684C12.2362 10.7631 12.5299 10.8421 12.6633 11.1052L14.7988 15.3947L17.7886 14.9473C18.6962 14.8158 19.5504 15.3947 19.7372 16.2631L20.3779 19.0789L16.534 20.9473L11.4621 18.1315C11.382 18.0789 11.3553 17.9736 11.382 17.8947C11.4087 17.8158 11.4888 17.7631 11.5956 17.7631L15.1459 18.2894L11.7557 11.5263Z" fill="#546E7A"/>
</svg>
